<?xml version="1.0" encoding="UTF-8" standalone="no"?>
<svg
   xmlns:dc="http://purl.org/dc/elements/1.1/"
   xmlns:cc="http://creativecommons.org/ns#"
   xmlns:rdf="http://www.w3.org/1999/02/22-rdf-syntax-ns#"
   xmlns:svg="http://www.w3.org/2000/svg"
   xmlns="http://www.w3.org/2000/svg"
   xmlns:sodipodi="http://sodipodi.sourceforge.net/DTD/sodipodi-0.dtd"
   xmlns:inkscape="http://www.inkscape.org/namespaces/inkscape"
   sodipodi:docname="cookie.svg"
   inkscape:version="1.0.1 (3bc2e813f5, 2020-09-07)"
   id="svg836"
   version="1.1"
   viewBox="0 0 20 20"
   height="20"
   width="20">
  <title
     id="title5097">base</title>
  <defs
     id="defs830" />
  <sodipodi:namedview
     inkscape:document-rotation="0"
     inkscape:window-maximized="1"
     inkscape:window-y="-6"
     inkscape:window-x="58"
     inkscape:window-height="890"
     inkscape:window-width="1303"
     inkscape:guide-bbox="true"
     showguides="true"
     units="px"
     showgrid="true"
     inkscape:current-layer="svg836"
     inkscape:document-units="px"
     inkscape:cy="-1.3195645"
     inkscape:cx="-9.5024783"
     inkscape:zoom="8.131728"
     inkscape:pageshadow="2"
     inkscape:pageopacity="0.0"
     borderopacity="1.0"
     bordercolor="#666666"
     pagecolor="#ffffff"
     id="base">
    <inkscape:grid
       enabled="true"
       id="grid1384"
       type="xygrid" />
    <sodipodi:guide
       inkscape:locked="false"
       id="guide5089"
       orientation="0,1"
       position="3,19" />
    <sodipodi:guide
       inkscape:locked="false"
       id="guide5091"
       orientation="0,1"
       position="7,1" />
    <sodipodi:guide
       inkscape:locked="false"
       id="guide5093"
       orientation="1,0"
       position="1,21" />
    <sodipodi:guide
       inkscape:locked="false"
       id="guide5095"
       orientation="1,0"
       position="19,20" />
  </sodipodi:namedview>
  <metadata
     id="metadata833">
    <rdf:RDF>
      <cc:Work
         rdf:about="">
        <dc:format>image/svg+xml</dc:format>
        <dc:type
           rdf:resource="http://purl.org/dc/dcmitype/StillImage" />
        <dc:title>base</dc:title>
      </cc:Work>
    </rdf:RDF>
  </metadata>
  <path
     id="path851"
     style="opacity:0.999;fill:none;stroke:#000000;stroke-linecap:round;stroke-linejoin:round;paint-order:fill markers stroke"
     d="M 18.5,10 A 8.5,8.5 0 0 1 10,18.5 8.5,8.5 0 0 1 1.5,10 8.5,8.5 0 0 1 10,1.5 8.5,8.5 0 0 1 18.5,10 Z" />
  <path
     id="circle853"
     style="opacity:0.999;fill:none;stroke:#000000;stroke-width:0.999997;stroke-linecap:round;stroke-linejoin:round;paint-order:fill markers stroke"
     d="M 13.500001,7 A 1.5000011,1.5000011 0 0 1 12,8.5000011 1.5000011,1.5000011 0 0 1 10.499999,7 1.5000011,1.5000011 0 0 1 12,5.4999989 1.5000011,1.5000011 0 0 1 13.500001,7 Z"
     class="fill" />
  <path
     id="circle869"
     style="opacity:0.999;fill:none;stroke:#000000;stroke-width:0.999994;stroke-linecap:round;stroke-linejoin:round;paint-order:fill markers stroke"
     d="M 11,14.499998 A 1.0000014,1.0000014 0 0 1 9.9999986,15.5 1.0000014,1.0000014 0 0 1 8.9999971,14.499998 1.0000014,1.0000014 0 0 1 9.9999986,13.499997 1.0000014,1.0000014 0 0 1 11,14.499998 Z"
     class="fill" />
  <path
     id="circle871"
     style="opacity:0.999;fill:none;stroke:#000000;stroke-width:0.999994;stroke-linecap:round;stroke-linejoin:round;paint-order:fill markers stroke"
     d="M 7.5,8.4999981 A 1.0000014,1.0000014 0 0 1 6.4999986,9.4999995 1.0000014,1.0000014 0 0 1 5.4999971,8.4999981 1.0000014,1.0000014 0 0 1 6.4999986,7.4999967 1.0000014,1.0000014 0 0 1 7.5,8.4999981 Z"
     class="fill" />
</svg>
