<?xml version="1.0" encoding="UTF-8" standalone="no"?>
<svg
   xmlns:dc="http://purl.org/dc/elements/1.1/"
   xmlns:cc="http://creativecommons.org/ns#"
   xmlns:rdf="http://www.w3.org/1999/02/22-rdf-syntax-ns#"
   xmlns:svg="http://www.w3.org/2000/svg"
   xmlns="http://www.w3.org/2000/svg"
   xmlns:sodipodi="http://sodipodi.sourceforge.net/DTD/sodipodi-0.dtd"
   xmlns:inkscape="http://www.inkscape.org/namespaces/inkscape"
   width="20"
   height="20"
   viewBox="0 0 20 20"
   version="1.1"
   id="svg836"
   inkscape:version="1.0.1 (3bc2e813f5, 2020-09-07)"
   sodipodi:docname="emoji-blink.svg">
  <title
     id="title5097">base</title>
  <defs
     id="defs830" />
  <sodipodi:namedview
     id="base"
     pagecolor="#ffffff"
     bordercolor="#666666"
     borderopacity="1.0"
     inkscape:pageopacity="0.0"
     inkscape:pageshadow="2"
     inkscape:zoom="23"
     inkscape:cx="17.984188"
     inkscape:cy="4.1338264"
     inkscape:document-units="px"
     inkscape:current-layer="svg836"
     showgrid="true"
     units="px"
     showguides="true"
     inkscape:guide-bbox="true"
     inkscape:window-width="2560"
     inkscape:window-height="1017"
     inkscape:window-x="2728"
     inkscape:window-y="-8"
     inkscape:window-maximized="1"
     inkscape:document-rotation="0"
     inkscape:snap-bbox="true"
     inkscape:bbox-nodes="true"
     inkscape:snap-bbox-midpoints="true">
    <inkscape:grid
       type="xygrid"
       id="grid1384"
       enabled="true" />
    <sodipodi:guide
       position="3,19"
       orientation="0,1"
       id="guide5089"
       inkscape:locked="false" />
    <sodipodi:guide
       position="7,1"
       orientation="0,1"
       id="guide5091"
       inkscape:locked="false" />
    <sodipodi:guide
       position="1,21"
       orientation="1,0"
       id="guide5093"
       inkscape:locked="false" />
    <sodipodi:guide
       position="19,20"
       orientation="1,0"
       id="guide5095"
       inkscape:locked="false" />
  </sodipodi:namedview>
  <metadata
     id="metadata833">
    <rdf:RDF>
      <cc:Work
         rdf:about="">
        <dc:format>image/svg+xml</dc:format>
        <dc:type
           rdf:resource="http://purl.org/dc/dcmitype/StillImage" />
        <dc:title>base</dc:title>
      </cc:Work>
    </rdf:RDF>
  </metadata>
  <path
     id="path836"
     style="fill:none;stroke:#000000;stroke-width:1;stroke-linecap:round;stroke-linejoin:round"
     d="M 19.5,10 A 9.5,9.5 0 0 1 10,19.5 9.5,9.5 0 0 1 0.5,10 9.5,9.5 0 0 1 10,0.5 9.5,9.5 0 0 1 19.5,10 Z" />
  <path
     id="path838"
     style="fill:none;stroke:#000000;stroke-width:1;stroke-linecap:round;stroke-linejoin:round"
     d="M 8.1000004,7.4666667 A 1.9000001,1.9000001 0 0 1 6.2000003,9.3666668 1.9000001,1.9000001 0 0 1 4.3000002,7.4666667 1.9000001,1.9000001 0 0 1 6.2000003,5.5666666 1.9000001,1.9000001 0 0 1 8.1000004,7.4666667 Z"
     class="fill" />
  <path
     id="path856"
     style="fill:none;stroke:#000000;stroke-width:1;stroke-linecap:round;stroke-linejoin:round"
     d="M 15.094949,12.692375 A 6.9666669,6.9666669 0 0 1 10,14.907627 6.9666669,6.9666669 0 0 1 4.9055175,12.692874"
     inkscape:connector-curvature="0" />
  <path
     id="path869"
     style="fill:none;stroke:#000000;stroke-width:1;stroke-linecap:round;stroke-linejoin:round"
     d="M 15.066667,8.7333336 A 5.1595706,6.9666669 0 0 0 11.9,6.5664117"
     inkscape:connector-curvature="0" />
</svg>
