<?xml version="1.0" encoding="UTF-8" standalone="no"?>
<svg
   xmlns:dc="http://purl.org/dc/elements/1.1/"
   xmlns:cc="http://creativecommons.org/ns#"
   xmlns:rdf="http://www.w3.org/1999/02/22-rdf-syntax-ns#"
   xmlns:svg="http://www.w3.org/2000/svg"
   xmlns="http://www.w3.org/2000/svg"
   xmlns:sodipodi="http://sodipodi.sourceforge.net/DTD/sodipodi-0.dtd"
   xmlns:inkscape="http://www.inkscape.org/namespaces/inkscape"
   width="20"
   height="20"
   viewBox="0 0 20 20"
   version="1.1"
   id="svg836"
   inkscape:version="1.0.1 (3bc2e813f5, 2020-09-07)"
   sodipodi:docname="facebook-2.svg">
  <title
     id="title5097">base</title>
  <defs
     id="defs830" />
  <sodipodi:namedview
     id="base"
     pagecolor="#ffffff"
     bordercolor="#666666"
     borderopacity="1.0"
     inkscape:pageopacity="0.0"
     inkscape:pageshadow="2"
     inkscape:zoom="23"
     inkscape:cx="15.483651"
     inkscape:cy="6.7897847"
     inkscape:document-units="px"
     inkscape:current-layer="svg836"
     showgrid="true"
     units="px"
     showguides="true"
     inkscape:guide-bbox="true"
     inkscape:window-width="2560"
     inkscape:window-height="1017"
     inkscape:window-x="2728"
     inkscape:window-y="-8"
     inkscape:window-maximized="1"
     inkscape:document-rotation="0">
    <inkscape:grid
       type="xygrid"
       id="grid1384"
       enabled="true" />
    <sodipodi:guide
       position="3,19"
       orientation="0,1"
       id="guide5089"
       inkscape:locked="false" />
    <sodipodi:guide
       position="7,1"
       orientation="0,1"
       id="guide5091"
       inkscape:locked="false" />
    <sodipodi:guide
       position="1,21"
       orientation="1,0"
       id="guide5093"
       inkscape:locked="false" />
    <sodipodi:guide
       position="19,20"
       orientation="1,0"
       id="guide5095"
       inkscape:locked="false" />
  </sodipodi:namedview>
  <metadata
     id="metadata833">
    <rdf:RDF>
      <cc:Work
         rdf:about="">
        <dc:format>image/svg+xml</dc:format>
        <dc:type
           rdf:resource="http://purl.org/dc/dcmitype/StillImage" />
        <dc:title>base</dc:title>
      </cc:Work>
    </rdf:RDF>
  </metadata>
  <path
     style="fill:none;fill-opacity:1;stroke:#000000;stroke-width:0.999996;stroke-miterlimit:4;stroke-dasharray:none;stroke-opacity:1"
     d="M 13.341478,2 H 12.487449 C 10.113755,2 8.1826392,3.9423704 8.1826392,6.3298308 V 8.1571521 H 6.7235411 c -0.1502469,0 -0.2720878,0.1225475 -0.2720878,0.2736658 v 2.1893261 c 0,0.151119 0.1218409,0.273666 0.2720878,0.273666 h 1.4589892 v 6.705141 c 0,0.151118 0.1218409,0.273665 0.2720878,0.273665 h 2.1767029 c 0.150246,0 0.272087,-0.122547 0.272087,-0.273665 V 10.89381 h 2.165057 c 0.150247,0 0.272088,-0.122547 0.272088,-0.273666 V 8.4308179 c 0,-0.1511183 -0.121841,-0.2736658 -0.272088,-0.2736658 H 10.903408 V 6.3298308 c 0,-0.8784672 0.710585,-1.5931728 1.583932,-1.5931728 h 0.854029 c 0.150247,0 0.272088,-0.1225475 0.272088,-0.2736658 V 2.2736658 C 13.613566,2.1225475 13.491725,2 13.341478,2 Z"
     id="path836"
     class="fill" />
</svg>
