<?xml version="1.0" encoding="UTF-8" standalone="no"?>
<svg
   xmlns:dc="http://purl.org/dc/elements/1.1/"
   xmlns:cc="http://creativecommons.org/ns#"
   xmlns:rdf="http://www.w3.org/1999/02/22-rdf-syntax-ns#"
   xmlns:svg="http://www.w3.org/2000/svg"
   xmlns="http://www.w3.org/2000/svg"
   xmlns:sodipodi="http://sodipodi.sourceforge.net/DTD/sodipodi-0.dtd"
   xmlns:inkscape="http://www.inkscape.org/namespaces/inkscape"
   width="20"
   height="20"
   viewBox="0 0 20 20"
   version="1.1"
   id="svg836"
   inkscape:version="1.0.1 (3bc2e813f5, 2020-09-07)"
   sodipodi:docname="facebook.svg">
  <title
     id="title5097">base</title>
  <defs
     id="defs830" />
  <sodipodi:namedview
     id="base"
     pagecolor="#ffffff"
     bordercolor="#666666"
     borderopacity="1.0"
     inkscape:pageopacity="0.0"
     inkscape:pageshadow="2"
     inkscape:zoom="23"
     inkscape:cx="15.483651"
     inkscape:cy="6.7897847"
     inkscape:document-units="px"
     inkscape:current-layer="svg836"
     showgrid="true"
     units="px"
     showguides="true"
     inkscape:guide-bbox="true"
     inkscape:window-width="2560"
     inkscape:window-height="1017"
     inkscape:window-x="2728"
     inkscape:window-y="-8"
     inkscape:window-maximized="1"
     inkscape:document-rotation="0">
    <inkscape:grid
       type="xygrid"
       id="grid1384"
       enabled="true" />
    <sodipodi:guide
       position="3,19"
       orientation="0,1"
       id="guide5089"
       inkscape:locked="false" />
    <sodipodi:guide
       position="7,1"
       orientation="0,1"
       id="guide5091"
       inkscape:locked="false" />
    <sodipodi:guide
       position="1,21"
       orientation="1,0"
       id="guide5093"
       inkscape:locked="false" />
    <sodipodi:guide
       position="19,20"
       orientation="1,0"
       id="guide5095"
       inkscape:locked="false" />
  </sodipodi:namedview>
  <metadata
     id="metadata833">
    <rdf:RDF>
      <cc:Work
         rdf:about="">
        <dc:format>image/svg+xml</dc:format>
        <dc:type
           rdf:resource="http://purl.org/dc/dcmitype/StillImage" />
        <dc:title>base</dc:title>
      </cc:Work>
    </rdf:RDF>
  </metadata>
  <path
     d="m 13.70846,1.1198387 h -0.948744 c -2.636944,0 -4.7822271,2.1577854 -4.7822271,4.8100227 v 2.029977 H 6.3565722 c -0.1669097,0 -0.3022632,0.1361384 -0.3022632,0.3040162 V 10.695984 C 6.054309,10.863862 6.1896625,11 6.3565722,11 H 7.977368 v 7.448762 c 0,0.167878 0.1353534,0.304016 0.3022632,0.304016 H 10.697737 C 10.864647,18.752778 11,18.61664 11,18.448762 V 11 h 2.405169 c 0.16691,0 0.302263,-0.136138 0.302263,-0.304016 V 8.2638546 c 0,-0.1678778 -0.135353,-0.3040162 -0.302263,-0.3040162 H 11 v -2.029977 c 0,-0.975892 0.789391,-1.7698607 1.759595,-1.7698607 h 0.948744 c 0.16691,0 0.302263,-0.1361385 0.302263,-0.3040162 V 1.4238549 C 14.010723,1.2559772 13.87537,1.1198387 13.70846,1.1198387 Z"
     id="path836"
     style="stroke:#000000;fill:none"
     class="fill" />
</svg>
