<?xml version="1.0" encoding="UTF-8" standalone="no"?>
<svg
   xmlns:dc="http://purl.org/dc/elements/1.1/"
   xmlns:cc="http://creativecommons.org/ns#"
   xmlns:rdf="http://www.w3.org/1999/02/22-rdf-syntax-ns#"
   xmlns:svg="http://www.w3.org/2000/svg"
   xmlns="http://www.w3.org/2000/svg"
   xmlns:sodipodi="http://sodipodi.sourceforge.net/DTD/sodipodi-0.dtd"
   xmlns:inkscape="http://www.inkscape.org/namespaces/inkscape"
   sodipodi:docname="heart.svg"
   inkscape:version="1.0.1 (3bc2e813f5, 2020-09-07)"
   id="svg836"
   version="1.1"
   viewBox="0 0 20 20"
   height="20"
   width="20">
  <title
     id="title5097">base</title>
  <defs
     id="defs830" />
  <sodipodi:namedview
     inkscape:document-rotation="0"
     inkscape:window-maximized="1"
     inkscape:window-y="-8"
     inkscape:window-x="2728"
     inkscape:window-height="1017"
     inkscape:window-width="2560"
     inkscape:guide-bbox="true"
     showguides="true"
     units="px"
     showgrid="true"
     inkscape:current-layer="svg836"
     inkscape:document-units="px"
     inkscape:cy="3.2010589"
     inkscape:cx="4.5676114"
     inkscape:zoom="11.313709"
     inkscape:pageshadow="2"
     inkscape:pageopacity="0.0"
     borderopacity="1.0"
     bordercolor="#666666"
     pagecolor="#ffffff"
     id="base">
    <inkscape:grid
       enabled="true"
       id="grid1384"
       type="xygrid" />
    <sodipodi:guide
       inkscape:locked="false"
       id="guide5089"
       orientation="0,1"
       position="3,19" />
    <sodipodi:guide
       inkscape:locked="false"
       id="guide5091"
       orientation="0,1"
       position="7,1" />
    <sodipodi:guide
       inkscape:locked="false"
       id="guide5093"
       orientation="1,0"
       position="1,21" />
    <sodipodi:guide
       inkscape:locked="false"
       id="guide5095"
       orientation="1,0"
       position="19,20" />
  </sodipodi:namedview>
  <metadata
     id="metadata833">
    <rdf:RDF>
      <cc:Work
         rdf:about="">
        <dc:format>image/svg+xml</dc:format>
        <dc:type
           rdf:resource="http://purl.org/dc/dcmitype/StillImage" />
        <dc:title>base</dc:title>
      </cc:Work>
    </rdf:RDF>
  </metadata>
  <path
     id="path861"
     style="fill:none;fill-opacity:0.529412;stroke:#000000;stroke-width:1;stroke-linecap:round;stroke-linejoin:round;stroke-miterlimit:4;stroke-dasharray:none"
     d="M 5.7368388,0.82796819 A 5.1897815,4.9207104 0 0 0 0.60787523,5.7486785 5.1897815,4.9207104 0 0 0 1.3975686,8.3551174 h -0.010771 l 0.061991,0.076886 a 5.1897815,4.9207104 0 0 0 0.4824406,0.5958672 5.1897815,4.9207104 0 0 0 0.0054,0.00577 l 3.7570932,4.6439184 4.3096236,5.32244 4.309624,-5.32244 3.687032,-4.5555026 a 5.0697866,4.9207104 0 0 0 0.539039,-0.6669842 l 0.08085,-0.099952 h -0.01617 A 5.0697866,4.9207104 0 0 0 19.374548,5.7525225 5.0697866,4.9207104 0 0 0 14.304879,0.83181212 5.0697866,4.9207104 0 0 0 10.103065,3.0000002 5.1897815,4.9207104 0 0 0 5.7988305,0.82796787 a 5.1897815,4.9207104 0 0 0 -0.061992,3.2e-7 z"
     inkscape:connector-curvature="0"
     class="fill" />
</svg>
