<?xml version="1.0" encoding="UTF-8" standalone="no"?>
<svg
   xmlns:dc="http://purl.org/dc/elements/1.1/"
   xmlns:cc="http://creativecommons.org/ns#"
   xmlns:rdf="http://www.w3.org/1999/02/22-rdf-syntax-ns#"
   xmlns:svg="http://www.w3.org/2000/svg"
   xmlns="http://www.w3.org/2000/svg"
   xmlns:sodipodi="http://sodipodi.sourceforge.net/DTD/sodipodi-0.dtd"
   xmlns:inkscape="http://www.inkscape.org/namespaces/inkscape"
   sodipodi:docname="more.svg"
   inkscape:version="1.0.1 (3bc2e813f5, 2020-09-07)"
   id="svg836"
   version="1.1"
   viewBox="0 0 20 20"
   height="20"
   width="20">
  <title
     id="title5097">more</title>
  <defs
     id="defs830" />
  <sodipodi:namedview
     inkscape:document-rotation="0"
     inkscape:window-maximized="1"
     inkscape:window-y="-8"
     inkscape:window-x="2728"
     inkscape:window-height="1017"
     inkscape:window-width="2560"
     inkscape:guide-bbox="true"
     showguides="true"
     units="px"
     showgrid="true"
     inkscape:current-layer="svg836"
     inkscape:document-units="px"
     inkscape:cy="10.34748"
     inkscape:cx="24.784442"
     inkscape:zoom="22.627417"
     inkscape:pageshadow="2"
     inkscape:pageopacity="0.0"
     borderopacity="1.0"
     bordercolor="#666666"
     pagecolor="#ffffff"
     id="base">
    <inkscape:grid
       enabled="true"
       id="grid1384"
       type="xygrid" />
    <sodipodi:guide
       inkscape:locked="false"
       id="guide5089"
       orientation="0,1"
       position="3,19" />
    <sodipodi:guide
       inkscape:locked="false"
       id="guide5091"
       orientation="0,1"
       position="7,1" />
    <sodipodi:guide
       inkscape:locked="false"
       id="guide5093"
       orientation="1,0"
       position="1,21" />
    <sodipodi:guide
       inkscape:locked="false"
       id="guide5095"
       orientation="1,0"
       position="19,20" />
  </sodipodi:namedview>
  <metadata
     id="metadata833">
    <rdf:RDF>
      <cc:Work
         rdf:about="">
        <dc:format>image/svg+xml</dc:format>
        <dc:type
           rdf:resource="http://purl.org/dc/dcmitype/StillImage" />
        <dc:title>more</dc:title>
      </cc:Work>
    </rdf:RDF>
  </metadata>
  <path
     id="path836"
     style="fill:none;stroke:#000000;stroke-width:0.999998;stroke-linecap:round;stroke-linejoin:round"
     d="M 5.2125044,10.001658 A 2.0541694,2.1857073 0 0 1 3.158335,12.187366 2.0541694,2.1857073 0 0 1 1.1041656,10.001658 2.0541694,2.1857073 0 0 1 3.158335,7.8159511 2.0541694,2.1857073 0 0 1 5.2125044,10.001658 Z"
     class="fill" />
  <path
     id="circle842"
     style="fill:none;stroke:#000000;stroke-width:0.999998;stroke-linecap:round;stroke-linejoin:round"
     d="M 12.052793,9.9984083 A 2.0541694,2.1857073 0 0 1 9.9986238,12.184116 2.0541694,2.1857073 0 0 1 7.9444544,9.9984083 2.0541694,2.1857073 0 0 1 9.9986238,7.812701 2.0541694,2.1857073 0 0 1 12.052793,9.9984083 Z"
     class="fill hover" />
  <path
     id="circle844"
     style="fill:none;stroke:#000000;stroke-width:0.999998;stroke-linecap:round;stroke-linejoin:round"
     d="m 18.903283,10.008554 a 2.0541694,2.1857073 0 0 1 -2.05417,2.185708 2.0541694,2.1857073 0 0 1 -2.054169,-2.185708 2.0541694,2.1857073 0 0 1 2.054169,-2.1857069 2.0541694,2.1857073 0 0 1 2.05417,2.1857069 z"
     class="fill" />
</svg>
