<?xml version="1.0" encoding="UTF-8" standalone="no"?>
<svg
   xmlns:dc="http://purl.org/dc/elements/1.1/"
   xmlns:cc="http://creativecommons.org/ns#"
   xmlns:rdf="http://www.w3.org/1999/02/22-rdf-syntax-ns#"
   xmlns:svg="http://www.w3.org/2000/svg"
   xmlns="http://www.w3.org/2000/svg"
   xmlns:sodipodi="http://sodipodi.sourceforge.net/DTD/sodipodi-0.dtd"
   xmlns:inkscape="http://www.inkscape.org/namespaces/inkscape"
   sodipodi:docname="more-vertical.svg"
   inkscape:version="1.0.1 (3bc2e813f5, 2020-09-07)"
   id="svg836"
   version="1.1"
   viewBox="0 0 20 20"
   height="20"
   width="20">
  <title
     id="title5097">more</title>
  <defs
     id="defs830" />
  <sodipodi:namedview
     inkscape:document-rotation="0"
     inkscape:window-maximized="1"
     inkscape:window-y="-8"
     inkscape:window-x="2728"
     inkscape:window-height="1017"
     inkscape:window-width="2560"
     inkscape:guide-bbox="true"
     showguides="true"
     units="px"
     showgrid="true"
     inkscape:current-layer="svg836"
     inkscape:document-units="px"
     inkscape:cy="14.201213"
     inkscape:cx="11.251573"
     inkscape:zoom="16.263456"
     inkscape:pageshadow="2"
     inkscape:pageopacity="0.0"
     borderopacity="1.0"
     bordercolor="#666666"
     pagecolor="#ffffff"
     id="base">
    <inkscape:grid
       enabled="true"
       id="grid1384"
       type="xygrid" />
    <sodipodi:guide
       inkscape:locked="false"
       id="guide5089"
       orientation="0,1"
       position="3,19" />
    <sodipodi:guide
       inkscape:locked="false"
       id="guide5091"
       orientation="0,1"
       position="7,1" />
    <sodipodi:guide
       inkscape:locked="false"
       id="guide5093"
       orientation="1,0"
       position="1,21" />
    <sodipodi:guide
       inkscape:locked="false"
       id="guide5095"
       orientation="1,0"
       position="19,20" />
  </sodipodi:namedview>
  <metadata
     id="metadata833">
    <rdf:RDF>
      <cc:Work
         rdf:about="">
        <dc:format>image/svg+xml</dc:format>
        <dc:type
           rdf:resource="http://purl.org/dc/dcmitype/StillImage" />
        <dc:title>more</dc:title>
      </cc:Work>
    </rdf:RDF>
  </metadata>
  <path
     id="path836"
     style="fill:none;stroke:#000000;stroke-width:1;stroke-linecap:round;stroke-linejoin:round"
     d="M 12.150011,3.2717092 A 2.1500113,2.0250089 0 0 1 10,5.2967181 2.1500113,2.0250089 0 0 1 7.8499887,3.2717092 2.1500113,2.0250089 0 0 1 10,1.2467003 2.1500113,2.0250089 0 0 1 12.150011,3.2717092 Z"
     class="fill" />
  <path
     id="circle842"
     style="fill:none;stroke:#000000;stroke-width:1;stroke-linecap:round;stroke-linejoin:round"
     d="M 12.150011,9.9923906 A 2.1500113,2.0250089 0 0 1 10,12.0174 2.1500113,2.0250089 0 0 1 7.8499887,9.9923906 2.1500113,2.0250089 0 0 1 10,7.9673817 2.1500113,2.0250089 0 0 1 12.150011,9.9923906 Z"
     class="fill hover" />
  <path
     id="circle844"
     style="fill:none;stroke:#000000;stroke-width:1;stroke-linecap:round;stroke-linejoin:round"
     d="M 12.150011,16.771769 A 2.1500113,2.0250089 0 0 1 10,18.796777 2.1500113,2.0250089 0 0 1 7.8499887,16.771769 2.1500113,2.0250089 0 0 1 10,14.74676 a 2.1500113,2.0250089 0 0 1 2.150011,2.025009 z"
     class="fill" />
</svg>
