<?xml version="1.0" encoding="UTF-8" standalone="no"?>
<svg
   xmlns:dc="http://purl.org/dc/elements/1.1/"
   xmlns:cc="http://creativecommons.org/ns#"
   xmlns:rdf="http://www.w3.org/1999/02/22-rdf-syntax-ns#"
   xmlns:svg="http://www.w3.org/2000/svg"
   xmlns="http://www.w3.org/2000/svg"
   xmlns:sodipodi="http://sodipodi.sourceforge.net/DTD/sodipodi-0.dtd"
   xmlns:inkscape="http://www.inkscape.org/namespaces/inkscape"
   width="20"
   height="20"
   viewBox="0 0 20 20"
   version="1.1"
   id="svg836"
   inkscape:version="1.0.1 (3bc2e813f5, 2020-09-07)"
   sodipodi:docname="rss.svg">
  <title
     id="title5097">base</title>
  <defs
     id="defs830" />
  <sodipodi:namedview
     id="base"
     pagecolor="#ffffff"
     bordercolor="#666666"
     borderopacity="1.0"
     inkscape:pageopacity="0.0"
     inkscape:pageshadow="2"
     inkscape:zoom="11.5"
     inkscape:cx="16.294051"
     inkscape:cy="9.0155696"
     inkscape:document-units="px"
     inkscape:current-layer="svg836"
     showgrid="true"
     units="px"
     showguides="true"
     inkscape:guide-bbox="true"
     inkscape:window-width="2560"
     inkscape:window-height="1017"
     inkscape:window-x="2728"
     inkscape:window-y="-8"
     inkscape:window-maximized="1"
     inkscape:document-rotation="0"
     inkscape:snap-bbox="true"
     inkscape:snap-bbox-edge-midpoints="false"
     inkscape:snap-bbox-midpoints="true"
     inkscape:bbox-nodes="true">
    <inkscape:grid
       type="xygrid"
       id="grid1384"
       enabled="true" />
    <sodipodi:guide
       position="3,19"
       orientation="0,1"
       id="guide5089"
       inkscape:locked="false" />
    <sodipodi:guide
       position="7,1"
       orientation="0,1"
       id="guide5091"
       inkscape:locked="false" />
    <sodipodi:guide
       position="19,20"
       orientation="1,0"
       id="guide5095"
       inkscape:locked="false" />
    <sodipodi:guide
       position="1,16"
       orientation="1,0"
       id="guide896" />
  </sodipodi:namedview>
  <metadata
     id="metadata833">
    <rdf:RDF>
      <cc:Work
         rdf:about="">
        <dc:format>image/svg+xml</dc:format>
        <dc:type
           rdf:resource="http://purl.org/dc/dcmitype/StillImage" />
        <dc:title>base</dc:title>
      </cc:Work>
    </rdf:RDF>
  </metadata>
  <path
     id="path836"
     style="fill:none;stroke:#000000;stroke-width:1;stroke-linecap:round;stroke-linejoin:round"
     d="M 5.5371449,16.407267 A 1.9444263,1.9444262 0 0 1 3.5927186,18.351693 1.9444263,1.9444262 0 0 1 1.6482923,16.407267 1.9444263,1.9444262 0 0 1 3.5927186,14.46284 1.9444263,1.9444262 0 0 1 5.5371449,16.407267 Z"
     class="fill" />
  <path
     inkscape:connector-curvature="0"
     id="path915"
     style="fill:none;stroke:#000000;stroke-width:1;stroke-linecap:round;stroke-linejoin:round"
     d="M 0.99954846,9.7660225 A 7.1295631,7.1295626 0 0 1 3.5927186,9.2777047 7.1295631,7.1295626 0 0 1 10.722282,16.407267 7.1295631,7.1295626 0 0 1 10.233938,19.000506" />
  <path
     inkscape:connector-curvature="0"
     id="path912"
     style="fill:none;stroke:#000000;stroke-width:1;stroke-linecap:round;stroke-linejoin:round"
     d="M 1.00051,7.037088 A 9.7221315,9.7221308 0 0 1 3.5927186,6.6851377 9.7221315,9.7221308 0 0 1 13.31485,16.407268 9.7221315,9.7221308 0 0 1 12.963014,18.999063" />
  <path
     inkscape:connector-curvature="0"
     id="path909"
     style="fill:none;stroke:#000000;stroke-width:1;stroke-linecap:round;stroke-linejoin:round"
     d="M 0.99973656,4.368652 A 12.314701,12.3147 0 0 1 3.5927186,4.0925682 12.314701,12.3147 0 0 1 15.90742,16.407268 12.314701,12.3147 0 0 1 15.63127,19.000557" />
  <path
     inkscape:connector-curvature="0"
     id="path906"
     style="fill:none;stroke:#000000;stroke-width:1;stroke-linecap:round;stroke-linejoin:round"
     d="M 1.0004384,1.7271208 A 14.90727,14.907268 0 0 1 3.5927186,1.5000001 14.90727,14.907268 0 0 1 18.499988,16.407268 14.90727,14.907268 0 0 1 18.272873,18.999522" />
</svg>
