<?xml version="1.0" encoding="UTF-8" standalone="no"?>
<svg
   xmlns:dc="http://purl.org/dc/elements/1.1/"
   xmlns:cc="http://creativecommons.org/ns#"
   xmlns:rdf="http://www.w3.org/1999/02/22-rdf-syntax-ns#"
   xmlns:svg="http://www.w3.org/2000/svg"
   xmlns="http://www.w3.org/2000/svg"
   xmlns:sodipodi="http://sodipodi.sourceforge.net/DTD/sodipodi-0.dtd"
   xmlns:inkscape="http://www.inkscape.org/namespaces/inkscape"
   sodipodi:docname="settings.svg"
   inkscape:version="1.0.1 (3bc2e813f5, 2020-09-07)"
   id="svg836"
   version="1.1"
   viewBox="0 0 20 20"
   height="20"
   width="20">
  <title
     id="title5097">base</title>
  <defs
     id="defs830" />
  <sodipodi:namedview
     inkscape:document-rotation="0"
     inkscape:window-maximized="1"
     inkscape:window-y="-8"
     inkscape:window-x="2728"
     inkscape:window-height="1017"
     inkscape:window-width="2560"
     inkscape:guide-bbox="true"
     showguides="true"
     units="px"
     showgrid="true"
     inkscape:current-layer="svg836"
     inkscape:document-units="px"
     inkscape:cy="7.5720582"
     inkscape:cx="13.584409"
     inkscape:zoom="23"
     inkscape:pageshadow="2"
     inkscape:pageopacity="0.0"
     borderopacity="1.0"
     bordercolor="#666666"
     pagecolor="#ffffff"
     id="base">
    <inkscape:grid
       enabled="true"
       id="grid1384"
       type="xygrid" />
    <sodipodi:guide
       inkscape:locked="false"
       id="guide5089"
       orientation="0,1"
       position="3,19" />
    <sodipodi:guide
       inkscape:locked="false"
       id="guide5091"
       orientation="0,1"
       position="7,1" />
    <sodipodi:guide
       inkscape:locked="false"
       id="guide5093"
       orientation="1,0"
       position="1,21" />
    <sodipodi:guide
       inkscape:locked="false"
       id="guide5095"
       orientation="1,0"
       position="19,20" />
  </sodipodi:namedview>
  <metadata
     id="metadata833">
    <rdf:RDF>
      <cc:Work
         rdf:about="">
        <dc:format>image/svg+xml</dc:format>
        <dc:type
           rdf:resource="http://purl.org/dc/dcmitype/StillImage" />
        <dc:title>base</dc:title>
      </cc:Work>
    </rdf:RDF>
  </metadata>
  <path
     id="path847"
     style="fill:none;stroke:#000000;stroke-width:1;stroke-linecap:round;stroke-linejoin:round"
     d="M 5.1524088,2.9890602 A 2.0961123,2.0961123 0 0 1 3.0562966,5.0851724 2.0961123,2.0961123 0 0 1 0.96018434,2.9890602 2.0961123,2.0961123 0 0 1 3.0562966,0.89294791 2.0961123,2.0961123 0 0 1 5.1524088,2.9890602 Z"
     class="fill" />
  <path
     id="circle849"
     style="fill:none;stroke:#000000;stroke-width:1;stroke-linecap:round;stroke-linejoin:round"
     d="M 19.004975,9.9761009 A 2.0961123,2.0961123 0 0 1 16.908863,12.072213 2.0961123,2.0961123 0 0 1 14.812751,9.9761009 2.0961123,2.0961123 0 0 1 16.908863,7.8799887 2.0961123,2.0961123 0 0 1 19.004975,9.9761009 Z"
     class="fill" />
  <path
     id="circle851"
     style="fill:none;stroke:#000000;stroke-width:1;stroke-linecap:round;stroke-linejoin:round"
     d="M 5.1220293,16.978331 A 2.0961123,2.0961123 0 0 1 3.0259171,19.074443 2.0961123,2.0961123 0 0 1 0.9298048,16.978331 2.0961123,2.0961123 0 0 1 3.0259171,14.882218 2.0961123,2.0961123 0 0 1 5.1220293,16.978331 Z"
     class="fill" />
  <path
     style="fill:none;stroke:#000000;stroke-width:0.999999px;stroke-linecap:round;stroke-linejoin:round;stroke-opacity:1"
     d="M 3.025918,10.006479 H 14.205183"
     id="path853"
     inkscape:connector-curvature="0" />
  <path
     style="fill:none;stroke:#000000;stroke-width:0.999999px;stroke-linecap:round;stroke-linejoin:round;stroke-opacity:1"
     d="M 5.8207341,3.0194384 H 16.999999"
     id="path855"
     inkscape:connector-curvature="0" />
  <path
     style="fill:none;stroke:#000000;stroke-width:0.999999px;stroke-linecap:round;stroke-linejoin:round;stroke-opacity:1"
     d="M 5.8207341,16.993519 H 16.999999"
     id="path857"
     inkscape:connector-curvature="0" />
</svg>
