<?xml version="1.0" encoding="UTF-8" standalone="no"?>
<svg
   xmlns:dc="http://purl.org/dc/elements/1.1/"
   xmlns:cc="http://creativecommons.org/ns#"
   xmlns:rdf="http://www.w3.org/1999/02/22-rdf-syntax-ns#"
   xmlns:svg="http://www.w3.org/2000/svg"
   xmlns="http://www.w3.org/2000/svg"
   xmlns:sodipodi="http://sodipodi.sourceforge.net/DTD/sodipodi-0.dtd"
   xmlns:inkscape="http://www.inkscape.org/namespaces/inkscape"
   width="20"
   height="20"
   viewBox="0 0 20 20"
   version="1.1"
   id="svg836"
   inkscape:version="1.0.1 (3bc2e813f5, 2020-09-07)"
   sodipodi:docname="social-linkedin.svg">
  <title
     id="title5097">base</title>
  <defs
     id="defs830" />
  <sodipodi:namedview
     inkscape:snap-global="false"
     id="base"
     pagecolor="#ffffff"
     bordercolor="#666666"
     borderopacity="1.0"
     inkscape:pageopacity="0.0"
     inkscape:pageshadow="2"
     inkscape:zoom="23"
     inkscape:cx="10.512585"
     inkscape:cy="11.576669"
     inkscape:document-units="px"
     inkscape:current-layer="svg836"
     showgrid="true"
     units="px"
     showguides="true"
     inkscape:guide-bbox="true"
     inkscape:window-width="2560"
     inkscape:window-height="1017"
     inkscape:window-x="2728"
     inkscape:window-y="-8"
     inkscape:window-maximized="1"
     inkscape:document-rotation="0">
    <inkscape:grid
       type="xygrid"
       id="grid1384"
       enabled="true" />
    <sodipodi:guide
       position="3,19"
       orientation="0,1"
       id="guide5089"
       inkscape:locked="false" />
    <sodipodi:guide
       position="7,1"
       orientation="0,1"
       id="guide5091"
       inkscape:locked="false" />
    <sodipodi:guide
       position="1,21"
       orientation="1,0"
       id="guide5093"
       inkscape:locked="false" />
    <sodipodi:guide
       position="19,20"
       orientation="1,0"
       id="guide5095"
       inkscape:locked="false" />
  </sodipodi:namedview>
  <metadata
     id="metadata833">
    <rdf:RDF>
      <cc:Work
         rdf:about="">
        <dc:format>image/svg+xml</dc:format>
        <dc:type
           rdf:resource="http://purl.org/dc/dcmitype/StillImage" />
        <dc:title>base</dc:title>
      </cc:Work>
    </rdf:RDF>
  </metadata>
  <path
     id="path913"
     d="m 1.9112801,18.459797 c -0.022963,-0.0094 -0.064005,-0.05948 -0.090878,-0.111497 -0.04276,-0.08237 -0.048884,-0.804555 -0.048884,-5.589268 0,-4.1139896 0.00946,-5.5128193 0.03826,-5.5669176 0.082911,-0.1558474 0.04456,-0.1527772 1.9315114,-0.1539019 1.7598517,-0.00104 1.7895905,3.04e-5 1.8752783,0.067512 l 0.087051,0.068546 v 5.5819145 5.581912 l -0.076473,0.07191 -0.076473,0.07192 -1.7988001,-0.0026 c -0.989337,-0.0015 -1.8176958,-0.0103 -1.8407955,-0.01945 z m 5.4855761,-0.04371 c -0.03916,-0.03651 -0.079489,-0.114479 -0.090066,-0.173662 -0.010808,-0.05921 -0.014849,-2.566156 -0.00989,-5.571014 l 0.00946,-5.4633815 0.08012,-0.085355 0.08012,-0.085355 h 1.7305761 1.7305817 l 0.0811,0.081222 c 0.07719,0.077301 0.0811,0.1004938 0.0811,0.4829385 V 8.0032263 L 11.27915,7.8301436 c 0.53841,-0.4925653 1.18252,-0.8205105 1.925667,-0.9804434 0.437913,-0.094232 1.608245,-0.084201 2.081808,0.017934 1.896908,0.4088235 2.815697,1.5995413 3.078989,3.9902118 0.03331,0.304398 0.04366,1.224704 0.04366,3.947389 v 3.55046 l -0.07801,0.06323 c -0.07468,0.06052 -0.154801,0.06323 -1.876777,0.06323 h -1.798758 l -0.08111,-0.08122 -0.0811,-0.08116 -2.02e-4,-2.953663 c -2.09e-4,-2.924384 -0.01623,-3.462408 -0.115734,-3.942575 -0.09822,-0.473412 -0.355407,-0.845004 -0.691432,-0.998985 -0.25446,-0.116604 -0.659725,-0.163022 -1.003272,-0.114933 -0.833619,0.116726 -1.213138,0.540396 -1.382023,1.542804 -0.04819,0.286161 -0.05717,0.724767 -0.06943,3.404672 -0.01408,3.069914 -0.01439,3.076349 -0.08355,3.150623 l -0.06941,0.0744 H 9.2729908 c -1.7585889,0 -1.8072953,-0.0017 -1.876257,-0.06602 z M 3.2750604,6.0259734 C 2.7865359,5.9180322 2.275542,5.5947044 1.9832799,5.2086636 1.2935193,4.2975354 1.3710152,3.0661712 2.1679608,2.2741694 2.6080353,1.8368172 3.0333684,1.6460797 3.6267689,1.6199171 c 0.4246355,-0.018481 0.7330973,0.041013 1.0837658,0.208985 0.6288962,0.301694 1.0761094,0.8682497 1.2261499,1.5533518 0.051538,0.235443 0.04231,0.7591696 -0.017544,0.9923267 C 5.727933,5.1202862 5.1295049,5.751558 4.3984335,5.9786994 4.0913219,6.0741168 3.5885427,6.0952429 3.274918,6.0259673 Z"
     style="fill:none;stroke:#000000;stroke-width:1;stroke-linecap:round;stroke-linejoin:round;stroke-opacity:1"
     class="fill" />
</svg>
