<?xml version="1.0" encoding="UTF-8" standalone="no"?>
<svg
   xmlns:dc="http://purl.org/dc/elements/1.1/"
   xmlns:cc="http://creativecommons.org/ns#"
   xmlns:rdf="http://www.w3.org/1999/02/22-rdf-syntax-ns#"
   xmlns:svg="http://www.w3.org/2000/svg"
   xmlns="http://www.w3.org/2000/svg"
   xmlns:sodipodi="http://sodipodi.sourceforge.net/DTD/sodipodi-0.dtd"
   xmlns:inkscape="http://www.inkscape.org/namespaces/inkscape"
   width="20"
   height="20"
   viewBox="0 0 20 20"
   version="1.1"
   id="svg836"
   inkscape:version="1.0 (4035a4fb49, 2020-05-01)"
   sodipodi:docname="social-whatsup.svg">
  <title
     id="title5097">base</title>
  <defs
     id="defs830" />
  <sodipodi:namedview
     inkscape:snap-global="false"
     id="base"
     pagecolor="#ffffff"
     bordercolor="#666666"
     borderopacity="1.0"
     inkscape:pageopacity="0.0"
     inkscape:pageshadow="2"
     inkscape:zoom="32"
     inkscape:cx="14.47549"
     inkscape:cy="11.341965"
     inkscape:document-units="px"
     inkscape:current-layer="svg836"
     showgrid="true"
     units="px"
     showguides="true"
     inkscape:guide-bbox="true"
     inkscape:window-width="2560"
     inkscape:window-height="1017"
     inkscape:window-x="2728"
     inkscape:window-y="-8"
     inkscape:window-maximized="1"
     inkscape:document-rotation="0">
    <inkscape:grid
       type="xygrid"
       id="grid1384"
       enabled="true" />
    <sodipodi:guide
       position="3,19"
       orientation="0,1"
       id="guide5089"
       inkscape:locked="false" />
    <sodipodi:guide
       position="7,1"
       orientation="0,1"
       id="guide5091"
       inkscape:locked="false" />
    <sodipodi:guide
       position="1,21"
       orientation="1,0"
       id="guide5093"
       inkscape:locked="false" />
    <sodipodi:guide
       position="19,20"
       orientation="1,0"
       id="guide5095"
       inkscape:locked="false" />
  </sodipodi:namedview>
  <metadata
     id="metadata833">
    <rdf:RDF>
      <cc:Work
         rdf:about="">
        <dc:format>image/svg+xml</dc:format>
        <dc:type
           rdf:resource="http://purl.org/dc/dcmitype/StillImage" />
        <dc:title>base</dc:title>
      </cc:Work>
    </rdf:RDF>
  </metadata>
  <path
     d="m 7.0153719,5.9385124 c -0.1413113,0 -0.3709022,0.052606 -0.5653101,0.2649996 -0.1943031,0.2122871 -0.7419696,0.7249513 -0.7419696,1.7686277 0,1.0436762 0.7596474,2.0511013 0.8656311,2.1926283 0.1059836,0.141526 1.4965983,2.283237 3.6234817,3.201588 0.505878,0.218665 0.89915,0.349827 1.207173,0.447556 0.507967,0.161386 0.97132,0.138976 1.336723,0.0844 0.407419,-0.06094 1.254093,-0.513723 1.430941,-1.008962 0.176638,-0.495341 0.176756,-0.92043 0.123661,-1.008961 -0.05287,-0.08843 -0.19435,-0.141139 -0.406316,-0.247334 -0.211967,-0.106196 -1.254198,-0.618131 -1.448607,-0.688999 -0.194198,-0.07077 -0.335773,-0.106175 -0.47698,0.106 -0.141416,0.212186 -0.547553,0.68891 -0.671306,0.830333 -0.123753,0.14152 -0.247243,0.159204 -0.459315,0.05299 C 10.621107,11.827307 9.9373606,11.603617 9.1274334,10.881248 8.4971762,10.31902 8.071493,9.6251381 7.9477411,9.4129528 7.8241981,9.2005597 7.9459296,9.0977499 8.0399965,8.9811015 8.2695231,8.6960631 8.5012819,8.3962278 8.5719376,8.254806 8.6426978,8.11328 8.6054052,7.9898989 8.5523088,7.8838064 8.4994216,7.7777142 8.0753084,6.7341946 7.8986689,6.3095119 7.7264196,5.8962223 7.5519209,5.950882 7.4216885,5.9444013 7.2981456,5.9382203 7.1567875,5.9385124 7.0153719,5.9385124 Z"
     style="fill:none;stroke:#000000;stroke-width:1;stroke-miterlimit:4;stroke-dasharray:none;stroke-opacity:1"
     id="path893" />
  <path
     sodipodi:nodetypes="csscsssc"
     d="m 18.426358,9.9444516 c 0,4.5330374 -3.674842,8.2077924 -8.207988,8.2077924 -1.1332871,0 -2.2129297,-0.229673 -3.1949199,-0.64501 -0.98199,-0.415337 -5.2320769,0.472068 -5.2320769,0.472068 -0.00483,0.01056 1.2793794,-3.85804 0.8640325,-4.840007 -0.4153469,-0.981966 -0.6450244,-2.061584 -0.6450244,-3.1948434 -2e-7,-4.5330384 3.6748415,-8.2077919 8.2079887,-8.2077918 4.533146,0 8.207988,3.6747535 8.207988,8.2077918"
     style="opacity:0.997;fill:none;fill-opacity:1;stroke:#000000;stroke-width:1;stroke-linecap:square;stroke-linejoin:miter;stroke-miterlimit:4;stroke-dasharray:none;stroke-opacity:1"
     id="path923" />
</svg>
