<?xml version="1.0" encoding="UTF-8" standalone="no"?>
<svg
   xmlns:dc="http://purl.org/dc/elements/1.1/"
   xmlns:cc="http://creativecommons.org/ns#"
   xmlns:rdf="http://www.w3.org/1999/02/22-rdf-syntax-ns#"
   xmlns:svg="http://www.w3.org/2000/svg"
   xmlns="http://www.w3.org/2000/svg"
   xmlns:sodipodi="http://sodipodi.sourceforge.net/DTD/sodipodi-0.dtd"
   xmlns:inkscape="http://www.inkscape.org/namespaces/inkscape"
   sodipodi:docname="social-instagram.svg"
   inkscape:version="1.0.1 (3bc2e813f5, 2020-09-07)"
   id="svg836"
   version="1.1"
   viewBox="0 0 20 20"
   height="20"
   width="20">
  <title
     id="title5097">base</title>
  <defs
     id="defs830" />
  <sodipodi:namedview
     inkscape:document-rotation="0"
     inkscape:window-maximized="1"
     inkscape:window-y="-8"
     inkscape:window-x="2728"
     inkscape:window-height="1017"
     inkscape:window-width="2560"
     inkscape:guide-bbox="true"
     showguides="true"
     units="px"
     showgrid="true"
     inkscape:current-layer="svg836"
     inkscape:document-units="px"
     inkscape:cy="6.5930644"
     inkscape:cx="2.1654173"
     inkscape:zoom="22.627417"
     inkscape:pageshadow="2"
     inkscape:pageopacity="0.0"
     borderopacity="1.0"
     bordercolor="#666666"
     pagecolor="#ffffff"
     id="base"
     inkscape:snap-global="false">
    <inkscape:grid
       enabled="true"
       id="grid1384"
       type="xygrid" />
    <sodipodi:guide
       inkscape:locked="false"
       id="guide5089"
       orientation="0,1"
       position="3,19" />
    <sodipodi:guide
       inkscape:locked="false"
       id="guide5091"
       orientation="0,1"
       position="7,1" />
    <sodipodi:guide
       inkscape:locked="false"
       id="guide5093"
       orientation="1,0"
       position="1,21" />
    <sodipodi:guide
       inkscape:locked="false"
       id="guide5095"
       orientation="1,0"
       position="19,20" />
  </sodipodi:namedview>
  <metadata
     id="metadata833">
    <rdf:RDF>
      <cc:Work
         rdf:about="">
        <dc:format>image/svg+xml</dc:format>
        <dc:type
           rdf:resource="http://purl.org/dc/dcmitype/StillImage" />
        <dc:title>base</dc:title>
      </cc:Work>
    </rdf:RDF>
  </metadata>
  <path
     id="rect1574"
     style="opacity:0.997;fill:none;stroke:#000000;stroke-width:0.999997;stroke-linecap:round;stroke-linejoin:round"
     d="M 4.0477948,1.5397524 H 16.016552 c 1.393657,0 2.515625,1.1219687 2.515625,2.515625 V 16.024131 c 0,1.393656 -1.121968,2.515625 -2.515625,2.515625 H 4.0477948 c -1.3936562,0 -2.515625,-1.121969 -2.515625,-2.515625 V 4.0553774 c 0,-1.3936563 1.1219688,-2.515625 2.515625,-2.515625 z" />
  <path
     id="path1576"
     style="opacity:0.997;fill:none;stroke:#000000;stroke-width:0.999996;stroke-linecap:round;stroke-linejoin:round;stroke-miterlimit:4;stroke-dasharray:none"
     d="M 13.993117,11.492881 A 4.0000043,4.0000019 0 0 1 9.9931126,15.492883 4.0000043,4.0000019 0 0 1 5.9931083,11.492881 4.0000043,4.0000019 0 0 1 9.9931126,7.4928789 4.0000043,4.0000019 0 0 1 13.993117,11.492881 Z"
     class="fill" />
  <path
     id="ellipse1578"
     style="opacity:0.997;fill:none;stroke:#000000;stroke-width:1;stroke-linecap:round;stroke-linejoin:round"
     d="m 15.485368,5.2564683 a 0.75000054,0.75000048 0 0 1 -0.75,0.7500005 0.75000054,0.75000048 0 0 1 -0.750001,-0.7500005 0.75000054,0.75000048 0 0 1 0.750001,-0.7500005 0.75000054,0.75000048 0 0 1 0.75,0.7500005 z"
     class="fill" />
</svg>
