<?xml version="1.0" encoding="UTF-8" standalone="no"?>
<svg
   xmlns:dc="http://purl.org/dc/elements/1.1/"
   xmlns:cc="http://creativecommons.org/ns#"
   xmlns:rdf="http://www.w3.org/1999/02/22-rdf-syntax-ns#"
   xmlns:svg="http://www.w3.org/2000/svg"
   xmlns="http://www.w3.org/2000/svg"
   xmlns:sodipodi="http://sodipodi.sourceforge.net/DTD/sodipodi-0.dtd"
   xmlns:inkscape="http://www.inkscape.org/namespaces/inkscape"
   width="20"
   height="20"
   viewBox="0 0 20 20"
   version="1.1"
   id="svg836"
   inkscape:version="1.0.1 (3bc2e813f5, 2020-09-07)"
   sodipodi:docname="social-twitter.svg">
  <title
     id="title5097">base</title>
  <defs
     id="defs830" />
  <sodipodi:namedview
     inkscape:snap-global="false"
     id="base"
     pagecolor="#ffffff"
     bordercolor="#666666"
     borderopacity="1.0"
     inkscape:pageopacity="0.0"
     inkscape:pageshadow="2"
     inkscape:zoom="11.5"
     inkscape:cx="8.6477794"
     inkscape:cy="15.146895"
     inkscape:document-units="px"
     inkscape:current-layer="svg836"
     showgrid="true"
     units="px"
     showguides="true"
     inkscape:guide-bbox="true"
     inkscape:window-width="2560"
     inkscape:window-height="1017"
     inkscape:window-x="2728"
     inkscape:window-y="-8"
     inkscape:window-maximized="1"
     inkscape:document-rotation="0">
    <inkscape:grid
       type="xygrid"
       id="grid1384"
       enabled="true" />
    <sodipodi:guide
       position="3,19"
       orientation="0,1"
       id="guide5089"
       inkscape:locked="false" />
    <sodipodi:guide
       position="7,1"
       orientation="0,1"
       id="guide5091"
       inkscape:locked="false" />
    <sodipodi:guide
       position="1,21"
       orientation="1,0"
       id="guide5093"
       inkscape:locked="false" />
    <sodipodi:guide
       position="19,20"
       orientation="1,0"
       id="guide5095"
       inkscape:locked="false" />
  </sodipodi:namedview>
  <metadata
     id="metadata833">
    <rdf:RDF>
      <cc:Work
         rdf:about="">
        <dc:format>image/svg+xml</dc:format>
        <dc:type
           rdf:resource="http://purl.org/dc/dcmitype/StillImage" />
        <dc:title>base</dc:title>
      </cc:Work>
    </rdf:RDF>
  </metadata>
  <path
     style="fill:none;stroke:#000000;stroke-width:0.999999;stroke-linecap:round;stroke-linejoin:round;stroke-miterlimit:4;stroke-dasharray:none;stroke-opacity:1"
     d="M 18.351176,4.8614242 C 17.724927,5.1364198 17.05763,5.3186966 16.361915,5.407201 17.077628,4.97943 17.623885,4.3072185 17.8807,3.4969824 17.213403,3.8952519 16.47664,4.1765692 15.691461,4.3335591 15.057845,3.6581867 14.154784,3.2398984 13.169626,3.2398984 c -1.911374,0 -3.4501563,1.5530403 -3.4501563,3.4569372 0,0.2739419 0.023155,0.5373477 0.079991,0.78811 C 6.9292426,7.3448137 4.3895149,5.9677284 2.6833821,3.8699649 2.3855193,4.3872939 2.2108011,4.97943 2.2108011,5.6168719 c 0,1.1969158 0.6157235,2.2579142 1.5335198,2.8721764 C 3.1896436,8.4785121 2.6454914,8.3173078 2.1844882,8.0633846 c 0,0.010536 0,0.024233 0,0.037931 0,1.6794751 1.1967138,3.0744714 2.7660192,3.3958264 -0.2810225,0.07691 -0.5873055,0.113792 -0.9051661,0.113792 -0.221029,0 -0.4441629,-0.01264 -0.6536141,-0.059 0.4473204,1.368656 1.716658,2.374866 3.2259698,2.407528 -1.1746109,0.919812 -2.6660299,1.474019 -4.2805936,1.474019 -0.2831275,0 -0.5546774,-0.01264 -0.8262272,-0.04741 1.5293097,0.987244 3.3417469,1.550932 5.2962742,1.550932 6.3530026,0 9.8263146,-5.268114 9.8263146,-9.8345171 0,-0.1527753 -0.0053,-0.3002825 -0.01263,-0.4467361 0.68519,-0.4867739 1.260917,-1.0947144 1.730341,-1.7943201 z"
     id="path836"
     class="fill" />
</svg>
