<?xml version="1.0" encoding="UTF-8" standalone="no"?>
<svg
   xmlns:dc="http://purl.org/dc/elements/1.1/"
   xmlns:cc="http://creativecommons.org/ns#"
   xmlns:rdf="http://www.w3.org/1999/02/22-rdf-syntax-ns#"
   xmlns:svg="http://www.w3.org/2000/svg"
   xmlns="http://www.w3.org/2000/svg"
   xmlns:sodipodi="http://sodipodi.sourceforge.net/DTD/sodipodi-0.dtd"
   xmlns:inkscape="http://www.inkscape.org/namespaces/inkscape"
   width="20"
   height="20"
   viewBox="0 0 20 20"
   version="1.1"
   id="svg836"
   inkscape:version="1.0.1 (3bc2e813f5, 2020-09-07)"
   sodipodi:docname="thumb-down.svg">
  <title
     id="title5097">base</title>
  <defs
     id="defs830" />
  <sodipodi:namedview
     id="base"
     pagecolor="#ffffff"
     bordercolor="#666666"
     borderopacity="1.0"
     inkscape:pageopacity="0.0"
     inkscape:pageshadow="2"
     inkscape:zoom="23"
     inkscape:cx="21.765438"
     inkscape:cy="9.8734173"
     inkscape:document-units="px"
     inkscape:current-layer="svg836"
     showgrid="true"
     units="px"
     showguides="true"
     inkscape:guide-bbox="true"
     inkscape:window-width="2560"
     inkscape:window-height="1017"
     inkscape:window-x="2728"
     inkscape:window-y="-8"
     inkscape:window-maximized="1"
     inkscape:document-rotation="0"
     inkscape:snap-nodes="false">
    <inkscape:grid
       type="xygrid"
       id="grid1384"
       enabled="true" />
    <sodipodi:guide
       position="3,19"
       orientation="0,1"
       id="guide5089"
       inkscape:locked="false" />
    <sodipodi:guide
       position="7,1"
       orientation="0,1"
       id="guide5091"
       inkscape:locked="false" />
    <sodipodi:guide
       position="1,21"
       orientation="1,0"
       id="guide5093"
       inkscape:locked="false" />
    <sodipodi:guide
       position="19,20"
       orientation="1,0"
       id="guide5095"
       inkscape:locked="false" />
  </sodipodi:namedview>
  <metadata
     id="metadata833">
    <rdf:RDF>
      <cc:Work
         rdf:about="">
        <dc:format>image/svg+xml</dc:format>
        <dc:type
           rdf:resource="http://purl.org/dc/dcmitype/StillImage" />
        <dc:title>base</dc:title>
      </cc:Work>
    </rdf:RDF>
  </metadata>
  <path
     style="fill:none;stroke:#000000;stroke-width:1px;stroke-linecap:round;stroke-linejoin:round;stroke-opacity:1"
     d="M 2.3996128,0.9869798 14.947742,0.93527857 c 0,0 1.261926,0.26848843 1.694092,0.66657723 0.49214,0.4533381 0.809084,1.7632852 0.809084,1.7632852 0,0 0.237624,4.0433295 -0.439184,5.8937042 -1.191095,3.2564228 -3.31264,6.0388688 -6.103209,8.4269628 C 10.36306,18.152601 9.4819796,18.656346 8.8523848,18.329764 8.2059565,17.99445 8.1631876,16.97632 8.4053482,16.341629 9.1083557,14.499081 10.965416,9.310544 10.965416,9.310544 H 2.4565027 l -0.00702,-1.0404455 c 0,0 -0.6688287,-0.627938 -0.6708203,-1.0404456 C 1.776635,6.8196734 2.4242227,6.5990407 2.4353474,6.1892074 2.4460614,5.7923482 1.8571076,5.5457614 1.8550386,5.1487619 1.8530149,4.7540311 2.435889,4.5027808 2.4212157,4.1083164 2.4058828,3.6960883 1.7523869,3.4803784 1.7503953,3.0678708 1.7483716,2.6578913 2.407084,2.0274253 2.407084,2.0274253 Z"
     id="path838"
     inkscape:connector-curvature="0"
     sodipodi:nodetypes="ccacasascccaaaaacc"
     class="fill" />
</svg>
