<?xml version="1.0" encoding="UTF-8" standalone="no"?>
<svg
   xmlns:dc="http://purl.org/dc/elements/1.1/"
   xmlns:cc="http://creativecommons.org/ns#"
   xmlns:rdf="http://www.w3.org/1999/02/22-rdf-syntax-ns#"
   xmlns:svg="http://www.w3.org/2000/svg"
   xmlns="http://www.w3.org/2000/svg"
   xmlns:sodipodi="http://sodipodi.sourceforge.net/DTD/sodipodi-0.dtd"
   xmlns:inkscape="http://www.inkscape.org/namespaces/inkscape"
   width="20"
   height="20"
   viewBox="0 0 20 20"
   version="1.1"
   id="svg836"
   inkscape:version="1.0beta2 (6465177, 2020-02-22)"
   sodipodi:docname="thumb-up.svg">
  <title
     id="title5097">base</title>
  <defs
     id="defs830" />
  <sodipodi:namedview
     id="base"
     pagecolor="#ffffff"
     bordercolor="#666666"
     borderopacity="1.0"
     inkscape:pageopacity="0.0"
     inkscape:pageshadow="2"
     inkscape:zoom="32.526912"
     inkscape:cx="22.401587"
     inkscape:cy="10.157564"
     inkscape:document-units="px"
     inkscape:current-layer="svg836"
     showgrid="true"
     units="px"
     showguides="true"
     inkscape:guide-bbox="true"
     inkscape:window-width="2560"
     inkscape:window-height="1017"
     inkscape:window-x="2728"
     inkscape:window-y="-8"
     inkscape:window-maximized="1"
     inkscape:document-rotation="0"
     inkscape:snap-nodes="false">
    <inkscape:grid
       type="xygrid"
       id="grid1384"
       enabled="true" />
    <sodipodi:guide
       position="3,19"
       orientation="0,1"
       id="guide5089"
       inkscape:locked="false" />
    <sodipodi:guide
       position="7,1"
       orientation="0,1"
       id="guide5091"
       inkscape:locked="false" />
    <sodipodi:guide
       position="1,21"
       orientation="1,0"
       id="guide5093"
       inkscape:locked="false" />
    <sodipodi:guide
       position="19,20"
       orientation="1,0"
       id="guide5095"
       inkscape:locked="false" />
  </sodipodi:namedview>
  <metadata
     id="metadata833">
    <rdf:RDF>
      <cc:Work
         rdf:about="">
        <dc:format>image/svg+xml</dc:format>
        <dc:type
           rdf:resource="http://purl.org/dc/dcmitype/StillImage" />
        <dc:title>base</dc:title>
      </cc:Work>
    </rdf:RDF>
  </metadata>
  <path
     style="fill:none;stroke:#000000;stroke-width:1px;stroke-linecap:round;stroke-linejoin:round;stroke-opacity:1"
     d="m 16.733503,18.253076 -12.359396,0.05093 c 0,0 -1.2429463,-0.264475 -1.6686111,-0.656612 -0.484738,-0.446561 -0.7969157,-1.736923 -0.7969157,-1.736923 0,0 -0.23405,-3.982881 0.432578,-5.805591 C 3.514338,6.8971406 5.6039734,4.1562932 8.352571,1.8039025 8.8898314,1.3440875 9.75766,0.84787426 10.377785,1.1695733 11.014491,1.4998741 11.056616,2.5027825 10.818098,3.1279846 10.125664,4.9429859 8.2965362,10.053953 8.2965362,10.053953 h 8.3809328 l 0.0069,1.02489 c 0,0 0.658769,0.61855 0.66073,1.024891 0.002,0.40385 -0.635854,0.621184 -0.646811,1.02489 -0.01055,0.390926 0.569542,0.633826 0.57158,1.024891 0.002,0.388829 -0.572114,0.636323 -0.557661,1.02489 0.0151,0.406065 0.658769,0.61855 0.660731,1.02489 0.002,0.403851 -0.646812,1.024891 -0.646812,1.024891 z"
     id="path838"
     inkscape:connector-curvature="0"
     sodipodi:nodetypes="ccacasascccaaaaacc" />
</svg>
