<?xml version="1.0" encoding="UTF-8" standalone="no"?>
<svg
   xmlns:dc="http://purl.org/dc/elements/1.1/"
   xmlns:cc="http://creativecommons.org/ns#"
   xmlns:rdf="http://www.w3.org/1999/02/22-rdf-syntax-ns#"
   xmlns:svg="http://www.w3.org/2000/svg"
   xmlns="http://www.w3.org/2000/svg"
   xmlns:sodipodi="http://sodipodi.sourceforge.net/DTD/sodipodi-0.dtd"
   xmlns:inkscape="http://www.inkscape.org/namespaces/inkscape"
   width="20"
   height="20"
   viewBox="0 0 20 20"
   version="1.1"
   id="svg836"
   inkscape:version="1.0beta2 (6465177, 2020-02-22)"
   sodipodi:docname="users.svg">
  <title
     id="title5097">base</title>
  <defs
     id="defs830" />
  <sodipodi:namedview
     id="base"
     pagecolor="#ffffff"
     bordercolor="#666666"
     borderopacity="1.0"
     inkscape:pageopacity="0.0"
     inkscape:pageshadow="2"
     inkscape:zoom="32.526912"
     inkscape:cx="7.8369305"
     inkscape:cy="10.543697"
     inkscape:document-units="px"
     inkscape:current-layer="svg836"
     showgrid="true"
     units="px"
     showguides="true"
     inkscape:guide-bbox="true"
     inkscape:window-width="2560"
     inkscape:window-height="1017"
     inkscape:window-x="2728"
     inkscape:window-y="-8"
     inkscape:window-maximized="1"
     inkscape:document-rotation="0">
    <inkscape:grid
       type="xygrid"
       id="grid1384"
       enabled="true" />
    <sodipodi:guide
       position="3,19"
       orientation="0,1"
       id="guide5089"
       inkscape:locked="false" />
    <sodipodi:guide
       position="7,1"
       orientation="0,1"
       id="guide5091"
       inkscape:locked="false" />
    <sodipodi:guide
       position="1,21"
       orientation="1,0"
       id="guide5093"
       inkscape:locked="false" />
    <sodipodi:guide
       position="19,20"
       orientation="1,0"
       id="guide5095"
       inkscape:locked="false" />
  </sodipodi:namedview>
  <metadata
     id="metadata833">
    <rdf:RDF>
      <cc:Work
         rdf:about="">
        <dc:format>image/svg+xml</dc:format>
        <dc:type
           rdf:resource="http://purl.org/dc/dcmitype/StillImage" />
        <dc:title>base</dc:title>
      </cc:Work>
    </rdf:RDF>
  </metadata>
  <path
     d="M 11.850885,5.9189429 A 3.761054,4.002377 0 0 1 8.0898314,9.92132 3.761054,4.002377 0 0 1 4.3287773,5.9189429 3.761054,4.002377 0 0 1 8.0898314,1.9165659 3.761054,4.002377 0 0 1 11.850885,5.9189429"
     style="fill:none;stroke:#000000;stroke-width:0.999999;stroke-linecap:round;stroke-linejoin:round"
     id="path838" />
  <path
     id="path845"
     style="fill:none;stroke:#000000;stroke-width:1;stroke-linecap:round;stroke-linejoin:round"
     d="m 1.2240634,18.585171 a 7.0734168,7.5272727 0 0 1 6.8954082,-5.849209 7.0734168,7.5272727 0 0 1 6.8952824,5.848623"
     inkscape:connector-curvature="0" />
  <path
     inkscape:connector-curvature="0"
     d="m 12.564218,2.0000001 a 2.5073688,2.6682506 0 0 1 0.622112,-0.083434 2.5073688,2.6682506 0 0 1 2.507369,2.6682506 2.5073688,2.6682506 0 0 1 -2.323583,2.6610731"
     style="fill:none;stroke:#000000;stroke-width:1;stroke-linecap:round;stroke-linejoin:round"
     id="circle839" />
  <path
     inkscape:connector-curvature="0"
     d="m 13.070289,9.7973884 a 5.7873561,6.1586937 0 0 1 0.06391,-3.757e-4 5.7873561,6.1586937 0 0 1 5.641606,4.7852493"
     style="fill:none;stroke:#000000;stroke-width:1;stroke-linecap:round;stroke-linejoin:round"
     id="path841" />
</svg>
