<?xml version="1.0" encoding="UTF-8" standalone="no"?>
<svg
   xmlns:dc="http://purl.org/dc/elements/1.1/"
   xmlns:cc="http://creativecommons.org/ns#"
   xmlns:rdf="http://www.w3.org/1999/02/22-rdf-syntax-ns#"
   xmlns:svg="http://www.w3.org/2000/svg"
   xmlns="http://www.w3.org/2000/svg"
   xmlns:sodipodi="http://sodipodi.sourceforge.net/DTD/sodipodi-0.dtd"
   xmlns:inkscape="http://www.inkscape.org/namespaces/inkscape"
   sodipodi:docname="weather-sunny-partially.svg"
   inkscape:version="1.0.1 (3bc2e813f5, 2020-09-07)"
   id="svg836"
   version="1.1"
   viewBox="0 0 20 20"
   height="20"
   width="20">
  <title
     id="title5097">base</title>
  <defs
     id="defs830" />
  <sodipodi:namedview
     inkscape:document-rotation="0"
     inkscape:window-maximized="1"
     inkscape:window-y="-6"
     inkscape:window-x="58"
     inkscape:window-height="890"
     inkscape:window-width="1303"
     inkscape:guide-bbox="true"
     showguides="true"
     units="px"
     showgrid="true"
     inkscape:current-layer="svg836"
     inkscape:document-units="px"
     inkscape:cy="-3.7848342"
     inkscape:cx="7.4436248"
     inkscape:zoom="5.75"
     inkscape:pageshadow="2"
     inkscape:pageopacity="0.0"
     borderopacity="1.0"
     bordercolor="#666666"
     pagecolor="#ffffff"
     id="base">
    <inkscape:grid
       enabled="true"
       id="grid1384"
       type="xygrid" />
    <sodipodi:guide
       inkscape:locked="false"
       id="guide5089"
       orientation="0,1"
       position="3,19" />
    <sodipodi:guide
       inkscape:locked="false"
       id="guide5091"
       orientation="0,1"
       position="7,1" />
    <sodipodi:guide
       inkscape:locked="false"
       id="guide5093"
       orientation="1,0"
       position="1,21" />
    <sodipodi:guide
       inkscape:locked="false"
       id="guide5095"
       orientation="1,0"
       position="19,20" />
  </sodipodi:namedview>
  <metadata
     id="metadata833">
    <rdf:RDF>
      <cc:Work
         rdf:about="">
        <dc:format>image/svg+xml</dc:format>
        <dc:type
           rdf:resource="http://purl.org/dc/dcmitype/StillImage" />
        <dc:title>base</dc:title>
      </cc:Work>
    </rdf:RDF>
  </metadata>
  <path
     id="path841"
     style="opacity:0.999;fill:none;stroke:#000000;stroke-width:1;stroke-linecap:round;stroke-linejoin:round;stroke-miterlimit:4;stroke-dasharray:none;stroke-opacity:1;paint-order:fill markers stroke"
     d="M 5.7553692 8.5056408 A 4.5 4.5 0 0 1 10 5.5 A 4.5 4.5 0 0 1 14.5 10 L 14.5 10 A 4.5 4.5 0 0 1 14.347853 11.160247 " />
  <path
     style="fill:none;stroke:#000000;stroke-width:1px;stroke-linecap:butt;stroke-linejoin:miter;stroke-opacity:1"
     d="M 2,2 5,5"
     id="path849" />
  <path
     style="fill:none;stroke:#000000;stroke-width:1px;stroke-linecap:butt;stroke-linejoin:miter;stroke-opacity:1"
     d="M 15,5 18,2"
     id="path851" />
  <path
     style="fill:none;stroke:#000000;stroke-width:1px;stroke-linecap:butt;stroke-linejoin:miter;stroke-opacity:1"
     d="m 16,10 h 3"
     id="path859" />
  <path
     style="fill:none;stroke:#000000;stroke-width:1px;stroke-linecap:butt;stroke-linejoin:miter;stroke-opacity:1"
     d="M 10,4 V 1"
     id="path863" />
  <path
     id="path865"
     style="opacity:0.999;fill:none;stroke:#000000;stroke-width:0.999999;stroke-linecap:round;stroke-linejoin:round;stroke-miterlimit:4;stroke-dasharray:none;stroke-opacity:1;paint-order:fill markers stroke"
     d="M 5.9547943,8.4999998 A 4.4556103,4.499441 0 0 1 9.913699,10.931909 3.506849,3.5413466 0 0 1 11.993151,10.243007 3.506849,3.5413466 0 0 1 15.5,13.784353 3.506849,3.5413466 0 0 1 11.993151,17.325699 3.506849,3.5413466 0 0 1 9.267123,16.008761 4.4556103,4.499441 0 0 1 5.9547943,17.500001 4.4556103,4.499441 0 0 1 1.4999999,13.001383 4.4556103,4.499441 0 0 1 5.9547943,8.4999998 Z" />
</svg>
